<svg xmlns="http://www.w3.org/2000/svg" viewBox="0 0 32 32">
  <!-- Background circle -->
  <circle cx="16" cy="16" r="16" fill="#2B7A9E"/>

  <!-- Dynamic curling wave ribbons -->
  <!-- Pink/Magenta ribbon -->
  <path
    d="M3 16 C6 13, 10 9, 15 9 C20 9, 22 13, 25 15 C28 17, 30 15, 32 13
       L32 16 C30 18, 28 20, 25 18 C22 16, 20 12, 15 12 C10 12, 6 16, 3 19 Z"
    fill="#D94F7A"
  />
  <!-- White/light ribbon -->
  <path
    d="M3 19 C6 16, 10 12, 15 12 C20 12, 22 16, 25 18 C28 20, 30 18, 32 16
       L32 19 C30 21, 28 23, 25 21 C22 19, 20 15, 15 15 C10 15, 6 19, 3 22 Z"
    fill="white"
    opacity="0.95"
  />
  <!-- Coral/Salmon ribbon -->
  <path
    d="M3 22 C6 19, 10 15, 15 15 C20 15, 22 19, 25 21 C28 23, 30 21, 32 19
       L32 22 C30 24, 28 26, 25 24 C22 22, 20 18, 15 18 C10 18, 6 22, 3 25 Z"
    fill="#E8896B"
  />
</svg>
